<?xml version="1.0" standalone="no"?>
<!DOCTYPE svg PUBLIC "-//W3C//DTD SVG 20010904//EN"
 "http://www.w3.org/TR/2001/REC-SVG-20010904/DTD/svg10.dtd">
<svg version="1.0" xmlns="http://www.w3.org/2000/svg"
 width="512.000000pt" height="512.000000pt" viewBox="0 0 512.000000 512.000000"
 preserveAspectRatio="xMidYMid meet">

<g transform="translate(0.000000,512.000000) scale(0.100000,-0.100000)"
fill="#000000" stroke="none">
<path d="M2315 5109 c-800 -83 -1501 -518 -1927 -1196 -487 -774 -516 -1777
-75 -2578 200 -364 487 -676 841 -913 238 -159 600 -311 876 -366 214 -43 295
-51 530 -51 236 0 333 10 532 51 880 184 1615 842 1898 1702 92 278 125 491
125 802 0 301 -32 513 -116 775 -124 390 -330 728 -622 1024 -399 404 -893
653 -1462 737 -123 18 -478 26 -600 13z m-814 -812 c19 -12 43 -41 55 -62 11
-22 106 -302 210 -622 l188 -583 606 0 606 0 189 583 c103 320 198 600 209
622 28 52 78 85 130 85 49 0 102 -25 128 -61 11 -14 158 -454 329 -978 341
-1050 333 -1020 283 -1111 -14 -26 -47 -63 -72 -82 -199 -151 -1753 -1273
-1773 -1281 -14 -6 -36 -7 -50 -4 -13 4 -429 301 -924 661 -812 591 -902 659
-927 703 -52 90 -52 87 181 805 115 354 255 783 310 954 56 172 111 324 123
339 45 57 139 72 199 32z"/>
<path d="M1415 4086 c-5 -10 -84 -251 -176 -535 l-167 -516 345 -3 c191 -1
348 -1 350 1 2 3 -315 992 -341 1062 -2 6 -7 1 -11 -9z"/>
<path d="M3526 3577 c-93 -287 -171 -528 -174 -534 -3 -10 71 -13 348 -13 313
0 351 2 346 15 -3 9 -80 246 -172 528 -91 282 -169 515 -172 519 -4 4 -83
-228 -176 -515z"/>
<path d="M1182 2792 c29 -37 296 -379 592 -760 297 -380 541 -690 543 -689 1
2 -108 342 -242 757 -135 414 -245 755 -245 757 0 2 -158 3 -351 3 l-350 0 53
-68z"/>
<path d="M2013 2848 c2 -7 125 -385 273 -840 148 -456 271 -828 274 -828 3 0
126 372 274 828 148 455 271 833 273 840 4 9 -109 12 -547 12 -437 0 -551 -3
-547 -12z"/>
<path d="M3290 2856 c0 -3 -110 -343 -245 -757 -134 -414 -243 -754 -242 -756
2 -2 588 746 1135 1449 l53 68 -350 0 c-193 0 -351 -2 -351 -4z"/>
<path d="M906 2525 c-42 -130 -76 -246 -74 -258 2 -15 181 -151 633 -479 347
-252 632 -458 634 -458 2 0 -1 6 -6 13 -6 6 -250 320 -543 697 -293 377 -541
693 -550 703 -16 17 -21 6 -94 -218z"/>
<path d="M3589 2063 c-556 -712 -572 -733 -567 -733 2 0 287 206 633 458 455
330 631 463 633 479 3 18 -144 493 -152 493 -2 0 -248 -314 -547 -697z"/>
</g>
</svg>
