<?xml version="1.0" standalone="no"?>
<!DOCTYPE svg PUBLIC "-//W3C//DTD SVG 20010904//EN"
 "http://www.w3.org/TR/2001/REC-SVG-20010904/DTD/svg10.dtd">
<svg version="1.0" xmlns="http://www.w3.org/2000/svg"
 width="512.000000pt" height="512.000000pt" viewBox="0 0 512.000000 512.000000"
 preserveAspectRatio="xMidYMid meet">

<g transform="translate(0.000000,512.000000) scale(0.100000,-0.100000)"
fill="#000" stroke="none">
<path d="M2370 5113 c-371 -35 -653 -114 -961 -269 -406 -203 -782 -548 -1029
-944 -179 -286 -309 -655 -362 -1025 -17 -118 -17 -512 0 -630 42 -295 120
-553 242 -800 137 -280 272 -468 494 -691 221 -220 412 -357 681 -489 188 -92
309 -137 500 -185 500 -126 1002 -102 1490 71 149 53 407 182 540 271 365 243
667 578 866 963 181 348 271 694 286 1090 15 426 -73 832 -263 1214 -124 250
-263 447 -458 648 -216 224 -428 378 -711 518 -296 146 -572 225 -900 255
-102 9 -333 11 -415 3z m1445 -1186 c21 -12 53 -42 70 -65 l30 -44 0 -1238 0
-1238 -30 -44 c-17 -23 -49 -53 -70 -65 l-40 -23 -1224 0 -1224 0 -43 25 c-26
15 -54 43 -69 69 l-25 43 0 1233 0 1233 25 43 c14 24 44 54 68 68 l42 26 1225
0 1225 0 40 -23z"/>
<path d="M1691 3464 c-73 -37 -104 -86 -109 -173 -3 -54 1 -74 20 -111 79
-154 335 -153 412 2 57 115 10 244 -106 292 -60 25 -155 21 -217 -10z"/>
<path d="M2895 2906 c-87 -27 -166 -81 -206 -141 -13 -19 -27 -35 -31 -35 -5
0 -8 36 -8 80 l0 80 -205 0 -205 0 0 -620 0 -620 204 0 204 0 4 388 c3 375 4
388 25 428 48 90 141 142 231 130 89 -12 141 -62 167 -161 12 -48 15 -127 15
-422 l0 -363 206 0 205 0 -3 438 -3 437 -28 82 c-50 149 -149 251 -286 293
-74 23 -222 26 -286 6z"/>
<path d="M1600 2270 l0 -620 205 0 205 0 0 620 0 620 -205 0 -205 0 0 -620z"/>
</g>
</svg>
